<svg width="149" height="40" viewBox="0 0 149 40" fill="none" xmlns="http://www.w3.org/2000/svg">
<circle cx="20" cy="20" r="20" fill="#F2AD5F"/>
<circle cx="145" cy="20" r="4" fill="#F2AD5F"/>
<path d="M25.6178 29.168C22.9458 29.168 20.9698 28.472 19.6898 27.08C18.4098 25.688 17.7698 23.52 17.7698 20.576C17.7698 17.712 18.4338 15.576 19.7617 14.168C21.1058 12.744 23.0898 12.032 25.7138 12.032C26.2258 12.032 26.7538 12.072 27.2978 12.152C27.8418 12.216 28.3458 12.32 28.8098 12.464C29.2738 12.592 29.6578 12.744 29.9618 12.92C30.1538 13.032 30.2978 13.152 30.3938 13.28C30.5058 13.392 30.5618 13.512 30.5618 13.64C30.5618 13.784 30.5298 13.96 30.4658 14.168C30.4178 14.376 30.3458 14.584 30.2498 14.792C30.1538 14.984 30.0418 15.152 29.9138 15.296C29.7858 15.424 29.6578 15.488 29.5298 15.488C29.3538 15.488 29.0978 15.424 28.7618 15.296C28.4258 15.168 28.0018 15.04 27.4898 14.912C26.9938 14.784 26.3858 14.72 25.6658 14.72C24.6098 14.72 23.7378 14.936 23.0498 15.368C22.3618 15.784 21.8498 16.424 21.5138 17.288C21.1778 18.152 21.0098 19.256 21.0098 20.6C21.0098 21.912 21.1778 23.008 21.5138 23.888C21.8498 24.752 22.3538 25.4 23.0258 25.832C23.7138 26.264 24.5778 26.48 25.6178 26.48C26.2098 26.48 26.7378 26.432 27.2018 26.336C27.6818 26.24 28.0978 26.128 28.4498 26C28.8018 25.856 29.0898 25.736 29.3138 25.64C29.5538 25.544 29.7298 25.496 29.8418 25.496C30.0018 25.496 30.1378 25.568 30.2498 25.712C30.3778 25.856 30.4818 26.032 30.5618 26.24C30.6578 26.432 30.7218 26.632 30.7538 26.84C30.8018 27.032 30.8258 27.168 30.8258 27.248C30.8258 27.472 30.7618 27.656 30.6338 27.8C30.5058 27.928 30.2818 28.08 29.9618 28.256C29.6098 28.448 29.1858 28.616 28.6898 28.76C28.2098 28.888 27.6978 28.984 27.1538 29.048C26.6258 29.128 26.1138 29.168 25.6178 29.168ZM39.7684 29.168C37.3204 29.168 35.4404 28.432 34.1284 26.96C32.8164 25.488 32.1604 23.368 32.1604 20.6C32.1604 17.8 32.8164 15.672 34.1284 14.216C35.4404 12.76 37.3204 12.032 39.7684 12.032C42.2164 12.032 44.0884 12.76 45.3844 14.216C46.6964 15.672 47.3524 17.8 47.3524 20.6C47.3524 23.368 46.6964 25.488 45.3844 26.96C44.0884 28.432 42.2164 29.168 39.7684 29.168ZM39.7684 26.48C41.1924 26.48 42.2724 25.984 43.0084 24.992C43.7444 23.984 44.1124 22.512 44.1124 20.576C44.1124 18.64 43.7444 17.184 43.0084 16.208C42.2724 15.216 41.1924 14.72 39.7684 14.72C38.3444 14.72 37.2564 15.216 36.5044 16.208C35.7684 17.184 35.4004 18.64 35.4004 20.576C35.4004 22.512 35.7684 23.984 36.5044 24.992C37.2564 25.984 38.3444 26.48 39.7684 26.48ZM51.6591 29.048C51.2111 29.048 50.8831 28.992 50.6751 28.88C50.4671 28.752 50.3631 28.576 50.3631 28.352V12.848C50.3631 12.624 50.4671 12.456 50.6751 12.344C50.8831 12.216 51.2111 12.152 51.6591 12.152H52.7631C53.1311 12.152 53.4351 12.2 53.6751 12.296C53.9311 12.392 54.1231 12.552 54.2511 12.776L58.0431 19.832C58.1711 20.04 58.2911 20.264 58.4031 20.504C58.5311 20.744 58.6271 20.968 58.6911 21.176C58.7711 20.984 58.8751 20.752 59.0031 20.48C59.1311 20.208 59.2431 19.984 59.3391 19.808L63.1551 12.8C63.2991 12.56 63.4831 12.392 63.7071 12.296C63.9311 12.2 64.2191 12.152 64.5711 12.152H65.6511C66.1151 12.152 66.4431 12.216 66.6351 12.344C66.8431 12.456 66.9471 12.624 66.9471 12.848V28.352C66.9471 28.576 66.8431 28.752 66.6351 28.88C66.4431 28.992 66.1151 29.048 65.6511 29.048H65.2191C64.7711 29.048 64.4431 28.992 64.2351 28.88C64.0431 28.752 63.9471 28.576 63.9471 28.352V18.632C63.9471 18.424 63.9471 18.224 63.9471 18.032C63.9471 17.824 63.9471 17.616 63.9471 17.408L63.8511 17.384C63.7711 17.56 63.6831 17.728 63.5871 17.888C63.4911 18.048 63.4031 18.208 63.3231 18.368L60.2031 24.176C60.0911 24.4 59.9311 24.552 59.7231 24.632C59.5151 24.712 59.2271 24.752 58.8591 24.752H58.4751C58.1071 24.752 57.8191 24.712 57.6111 24.632C57.4191 24.552 57.2591 24.4 57.1311 24.176L53.9871 18.32C53.9071 18.16 53.8191 18 53.7231 17.84C53.6271 17.68 53.5391 17.512 53.4591 17.336L53.3631 17.36C53.3631 17.552 53.3631 17.752 53.3631 17.96C53.3631 18.168 53.3631 18.376 53.3631 18.584V28.352C53.3631 28.576 53.2671 28.752 53.0751 28.88C52.8831 28.992 52.5551 29.048 52.0911 29.048H51.6591ZM71.8856 29.048C71.4376 29.048 71.1096 28.992 70.9016 28.88C70.6936 28.752 70.5896 28.576 70.5896 28.352V13.088C70.5896 12.496 70.8696 12.2 71.4296 12.2H76.3016C78.2056 12.2 79.6376 12.632 80.5976 13.496C81.5576 14.344 82.0376 15.616 82.0376 17.312C82.0376 19.008 81.5576 20.288 80.5976 21.152C79.6376 22.016 78.2056 22.448 76.3016 22.448H73.7816V28.352C73.7816 28.576 73.6776 28.752 73.4696 28.88C73.2776 28.992 72.9496 29.048 72.4856 29.048H71.8856ZM73.7816 19.76H76.3016C77.1816 19.76 77.8136 19.568 78.1976 19.184C78.5976 18.8 78.7976 18.176 78.7976 17.312C78.7976 16.464 78.5976 15.848 78.1976 15.464C77.8136 15.08 77.1816 14.888 76.3016 14.888H73.7816V19.76ZM85.1171 29C84.5571 29 84.2771 28.704 84.2771 28.112V13.088C84.2771 12.496 84.5571 12.2 85.1171 12.2H93.6131C94.0291 12.2 94.2371 12.544 94.2371 13.232V13.856C94.2371 14.544 94.0291 14.888 93.6131 14.888H87.4691V19.064H92.9651C93.3651 19.064 93.5651 19.408 93.5651 20.096V20.72C93.5651 21.408 93.3651 21.752 92.9651 21.752H87.4691V26.312H93.6371C94.0531 26.312 94.2611 26.656 94.2611 27.344V27.968C94.2611 28.656 94.0531 29 93.6371 29H85.1171ZM101.819 29.048C101.387 29.048 101.067 28.992 100.859 28.88C100.667 28.752 100.571 28.576 100.571 28.352V14.888H96.4667C96.0507 14.888 95.8427 14.544 95.8427 13.856V13.232C95.8427 12.544 96.0507 12.2 96.4667 12.2H107.795C108.227 12.2 108.443 12.544 108.443 13.232V13.856C108.443 14.544 108.227 14.888 107.795 14.888H103.739V28.352C103.739 28.576 103.643 28.752 103.451 28.88C103.259 28.992 102.939 29.048 102.491 29.048H101.819ZM114.991 29.048C114.559 29.048 114.239 28.992 114.031 28.88C113.839 28.752 113.743 28.576 113.743 28.352V14.888H109.639C109.223 14.888 109.015 14.544 109.015 13.856V13.232C109.015 12.544 109.223 12.2 109.639 12.2H120.967C121.399 12.2 121.615 12.544 121.615 13.232V13.856C121.615 14.544 121.399 14.888 120.967 14.888H116.911V28.352C116.911 28.576 116.815 28.752 116.623 28.88C116.431 28.992 116.111 29.048 115.663 29.048H114.991ZM124.562 29C124.002 29 123.722 28.704 123.722 28.112V13.088C123.722 12.496 124.002 12.2 124.562 12.2H133.058C133.474 12.2 133.682 12.544 133.682 13.232V13.856C133.682 14.544 133.474 14.888 133.058 14.888H126.914V19.064H132.41C132.81 19.064 133.01 19.408 133.01 20.096V20.72C133.01 21.408 132.81 21.752 132.41 21.752H126.914V26.312H133.082C133.498 26.312 133.706 26.656 133.706 27.344V27.968C133.706 28.656 133.498 29 133.082 29H124.562Z" fill="white"/>
</svg>
