<svg width="828" height="40" viewBox="0 0 828 40" fill="none" xmlns="http://www.w3.org/2000/svg">
<g clip-path="url(#clip0_3_192)">
<path d="M526.092 0.00387573H527.182C530.966 0.0861234 534.687 1.6077 537.36 4.30131C536.373 5.30885 535.366 6.27526 534.399 7.28279C532.898 5.9257 531.089 4.87705 529.115 4.50693C526.195 3.89008 523.049 4.44525 520.602 6.11076C517.929 7.85852 516.12 10.8194 515.729 13.986C515.297 17.1114 516.182 20.4013 518.217 22.8276C520.171 25.1922 523.152 26.6727 526.236 26.7755C529.115 26.94 532.117 26.0558 534.214 24.0407C535.859 22.622 536.62 20.463 536.867 18.3657C533.454 18.3657 530.04 18.3862 526.627 18.3657V14.1299H541C541.74 18.6741 540.671 23.794 537.216 27.0428C534.913 29.3457 531.726 30.7028 528.478 30.9701C525.332 31.2785 522.083 30.6822 519.286 29.1607C515.935 27.3718 513.262 24.3492 511.946 20.792C510.712 17.5226 510.692 13.8215 511.843 10.5316C512.892 7.52953 514.907 4.87705 517.498 3.02648C519.986 1.19647 523.008 0.188933 526.092 0.00387573Z" fill="#CACAD2"/>
<path d="M608.546 1.07275H612.946V30.4352C611.486 30.4352 610.006 30.4557 608.546 30.4146C608.566 20.6477 608.546 10.8602 608.546 1.07275Z" fill="#CACAD2"/>
<path d="M550.787 11.2509C553.502 10.7369 556.442 11.3126 558.683 12.937C560.719 14.3763 562.138 16.6381 562.569 19.1056C563.124 21.9637 562.425 25.0891 560.575 27.3509C558.58 29.88 555.311 31.2371 552.124 31.0315C549.204 30.867 546.367 29.4071 544.639 27.0219C542.686 24.39 542.213 20.7711 543.282 17.6868C544.351 14.3763 547.374 11.8472 550.787 11.2509ZM551.404 15.1577C550.294 15.4455 549.266 16.083 548.526 16.9877C546.531 19.3729 546.654 23.2591 548.855 25.4798C550.109 26.7546 552 27.3509 553.748 27.0013C555.373 26.7135 556.791 25.6237 557.573 24.1844C558.93 21.7375 558.539 18.3653 556.462 16.4531C555.126 15.2194 553.173 14.7053 551.404 15.1577Z" fill="#CACAD2"/>
<path d="M572.583 11.2509C575.688 10.6546 579.081 11.5182 581.404 13.6978C585.187 17.0905 585.599 23.4441 582.37 27.3509C580.417 29.8183 577.251 31.1754 574.125 31.0314C571.144 30.9492 568.203 29.4687 566.435 27.0219C564.44 24.3283 564.009 20.6271 565.14 17.4812C566.27 14.2735 569.231 11.8266 572.583 11.2509ZM573.2 15.1577C572.089 15.4455 571.061 16.0829 570.321 16.9671C568.347 19.3112 568.429 23.1357 570.547 25.3769C571.802 26.7134 573.755 27.3714 575.564 27.0013C577.168 26.6929 578.608 25.6237 579.389 24.1843C580.725 21.7169 580.335 18.3448 578.238 16.4325C576.901 15.1988 574.948 14.7053 573.2 15.1577Z" fill="#CACAD2"/>
<path d="M591.068 12.4435C593.433 10.963 596.579 10.5518 599.128 11.8266C599.93 12.1762 600.588 12.7725 601.226 13.3688C601.246 12.8136 601.226 12.2379 601.246 11.6621C602.624 11.6827 604.002 11.6621 605.4 11.6827V29.8183C605.379 32.553 604.68 35.4523 602.706 37.4468C600.547 39.6469 597.237 40.3254 594.255 39.8731C591.068 39.4002 588.292 37.0767 587.059 34.1363C588.292 33.54 589.588 33.0671 590.862 32.5119C591.582 34.198 593.042 35.6373 594.872 35.9663C596.702 36.2953 598.82 35.8429 600.013 34.3214C601.287 32.7587 601.287 30.6202 601.226 28.708C600.28 29.6333 599.19 30.4557 597.874 30.7642C595.016 31.5661 591.87 30.5791 589.67 28.6463C587.449 26.7135 586.133 23.732 586.257 20.7711C586.318 17.4195 588.21 14.1913 591.068 12.4435ZM595.324 15.0754C594.07 15.281 592.898 15.9801 592.096 16.9465C590.163 19.2495 590.163 22.9301 592.117 25.1919C593.227 26.5284 595.016 27.2686 596.743 27.0836C598.368 26.9191 599.869 25.891 600.671 24.4722C602.028 22.0665 601.801 18.7971 599.971 16.6998C598.841 15.4044 597.031 14.767 595.324 15.0754Z" fill="#CACAD2"/>
<path d="M618.23 13.4922C620.698 11.1892 624.502 10.4079 627.668 11.621C630.67 12.7519 632.583 15.61 633.549 18.5504C629.087 20.401 624.646 22.231 620.184 24.0815C620.801 25.2536 621.747 26.3228 623.021 26.7546C624.81 27.392 626.949 27.1658 628.45 25.9732C629.046 25.5209 629.519 24.9246 629.971 24.3489C631.102 25.1096 632.233 25.8499 633.364 26.6107C631.76 29.0164 629.067 30.7025 626.167 30.9698C622.96 31.3605 619.546 30.1268 617.47 27.6182C614.056 23.6703 614.385 17.0494 618.23 13.4922ZM620.431 17.2961C619.731 18.3037 619.444 19.5374 619.464 20.7505C622.446 19.5168 625.427 18.2831 628.409 17.0288C627.915 15.8773 626.723 15.1782 625.509 14.9932C623.556 14.6436 621.52 15.6923 620.431 17.2961Z" fill="#CACAD2"/>
</g>
<path d="M104.047 19.4275C102.378 19.4275 101.175 19.9747 99.9551 20.5323V33.1472C101.123 33.2585 101.793 33.2585 102.902 33.2585C106.907 33.2585 107.456 31.4242 107.456 28.863V22.838C107.456 20.9466 106.829 19.4275 104.047 19.4275ZM77.4454 18.7391C74.6663 18.7391 74.0321 20.2647 74.0321 22.1543V23.2159H80.855V22.1543C80.855 20.2647 80.2208 18.7391 77.4454 18.7391ZM25.9137 31.8694C25.9137 33.3642 26.619 34.1406 28.1755 34.1406C29.8452 34.1406 30.8339 33.5962 32.0528 33.0368V30.0444H28.4019C26.6732 30.0444 25.9137 30.3662 25.9137 31.8694ZM129.923 19.4275C127.139 19.4275 126.175 20.9466 126.175 22.838V29.7404C126.175 31.6365 127.139 33.1603 129.923 33.1603C132.699 33.1603 133.671 31.6365 133.671 29.7404V22.838C133.67 20.9466 132.698 19.4275 129.923 19.4275ZM12.2716 39.609H4.08868V19.8026H0V12.9779H4.08961V8.87891C4.08961 3.31042 6.39727 0 12.9564 0H18.4173V6.82662H15.004C12.4503 6.82662 12.2819 7.78074 12.2819 9.56083L12.2716 12.9769H18.4547L17.7316 19.8017H12.2716V39.609ZM40.2376 39.6604H33.4175L33.1229 37.9356C30.0089 39.6605 27.2298 39.9401 25.3964 39.9401C20.3947 39.9401 17.7326 36.5989 17.7326 31.9779C17.7326 26.5264 20.8391 24.5807 26.3963 24.5807H32.0528V23.4021C32.0528 20.6192 31.7338 19.8026 27.4543 19.8026H20.4574L21.1412 12.9779H28.7891C38.1788 12.9779 40.2376 15.9441 40.2376 23.4573V39.6604ZM63.4292 20.3031C59.1853 19.5753 57.9664 19.4154 55.9244 19.4154C52.2567 19.4154 51.1482 20.2245 51.1482 23.3394V29.2316C51.1482 32.3465 52.2567 33.1594 55.9244 33.1594C57.9664 33.1594 59.1853 32.9966 63.4292 32.266V38.9234C59.7119 39.7568 57.2901 39.9757 55.2434 39.9757C46.4581 39.9757 42.9662 35.3557 42.9662 28.6815V23.9007C42.9662 17.2209 46.4581 12.5925 55.2434 12.5925C57.2901 12.5925 59.7119 12.8123 63.4292 13.6495V20.3031ZM89.037 28.6815H74.0312V29.2316C74.0312 32.3465 75.1406 33.1594 78.8074 33.1594C82.1038 33.1594 84.1158 32.9966 88.3523 32.266V38.9234C84.2664 39.7568 82.1374 39.9757 78.1292 39.9757C69.3429 39.9757 65.8491 35.3557 65.8491 28.6815V23.215C65.8491 17.3752 68.4411 12.5925 77.4445 12.5925C86.4478 12.5925 89.037 17.3201 89.037 23.215V28.6815ZM115.637 28.8078C115.637 35.2584 113.794 39.9635 102.625 39.9635C98.5913 39.9635 96.2256 39.609 91.774 38.9243V2.05042L99.9542 0.685657V13.584C101.722 12.9274 104.01 12.5934 106.092 12.5934C114.273 12.5934 115.636 16.2612 115.636 22.1552V28.8078H115.637ZM141.86 28.9481C141.86 34.5129 139.562 39.9102 129.95 39.9102C120.333 39.9102 117.993 34.5129 117.993 28.9481V23.5751C117.993 18.0076 120.333 12.6093 129.95 12.6093C139.562 12.6093 141.86 18.0076 141.86 23.5751V28.9481ZM168.064 28.9481C168.064 34.5129 165.764 39.9102 156.154 39.9102C146.537 39.9102 144.196 34.5129 144.196 28.9481V23.5751C144.196 18.0076 146.537 12.6093 156.154 12.6093C165.764 12.6093 168.064 18.0076 168.064 23.5751V28.9481ZM194.956 39.609H186.09L178.59 27.0904V39.609H170.407V2.04948L178.59 0.68472V24.8641L186.09 12.9779H194.956L186.77 25.9492L194.956 39.609ZM156.126 19.4275C153.346 19.4275 152.382 20.9466 152.382 22.838V29.7404C152.382 31.6365 153.346 33.1603 156.126 33.1603C158.901 33.1603 159.883 31.6365 159.883 29.7404V22.838C159.883 20.9466 158.901 19.4275 156.126 19.4275ZM199.627 34.9376C201.005 34.9376 202.102 36.061 202.102 37.4641C202.102 38.8887 201.004 40 199.617 40C198.236 40 197.116 38.8887 197.116 37.4641C197.116 36.061 198.236 34.9376 199.617 34.9376H199.627ZM199.617 35.3304C198.506 35.3304 197.598 36.2855 197.598 37.4641C197.598 38.6642 198.507 39.6071 199.627 39.6071C200.747 39.6184 201.643 38.6642 201.643 37.4753C201.643 36.2864 200.747 35.3304 199.627 35.3304H199.617ZM199.146 38.9346H198.697V36.1152C198.933 36.0825 199.157 36.0498 199.494 36.0498C199.921 36.0498 200.199 36.1396 200.37 36.2621C200.536 36.3865 200.625 36.5764 200.625 36.8449C200.625 37.2172 200.38 37.4407 200.078 37.5315V37.553C200.324 37.5988 200.491 37.8214 200.548 38.2358C200.614 38.6745 200.682 38.842 200.726 38.9336H200.255C200.189 38.842 200.121 38.5847 200.065 38.2134C199.999 37.8551 199.818 37.7204 199.458 37.7204H199.147V38.9346H199.146ZM199.146 37.3743H199.472C199.84 37.3743 200.153 37.2387 200.153 36.8898C200.153 36.6428 199.976 36.3968 199.472 36.3968C199.325 36.3968 199.223 36.408 199.146 36.4183V37.3743Z" fill="#CACAD2"/>
<g clip-path="url(#clip1_3_192)">
<path d="M714 3.05176e-05C702.954 3.05176e-05 694 8.95427 694 19.9997C694 31.0462 702.954 40 714 40C725.046 40 734 31.0462 734 19.9997C734 8.95498 725.046 0.000985084 714 0.000985084L714 3.05176e-05ZM723.172 28.8452C722.813 29.4344 722.045 29.619 721.458 29.2601C716.761 26.3896 710.85 25.7412 703.888 27.3316C703.217 27.4854 702.548 27.0648 702.396 26.3942C702.242 25.7233 702.661 25.0546 703.333 24.9018C710.952 23.16 717.487 23.9097 722.758 27.131C723.346 27.4916 723.532 28.2582 723.171 28.8457L723.172 28.8452ZM725.62 23.4003C725.167 24.1342 724.208 24.3644 723.475 23.9138C718.1 20.6099 709.904 19.6529 703.546 21.5831C702.721 21.8322 701.85 21.3674 701.6 20.5442C701.351 19.7195 701.816 18.8502 702.639 18.5994C709.903 16.3956 718.932 17.4631 725.106 21.2568C725.839 21.7082 726.071 22.6683 725.619 23.4005L725.62 23.4003ZM725.83 17.7296C719.383 13.901 708.749 13.549 702.595 15.4169C701.607 15.7166 700.561 15.1587 700.262 14.1704C699.962 13.1817 700.52 12.1373 701.509 11.8369C708.574 9.69224 720.318 10.1066 727.739 14.5122C728.628 15.0397 728.919 16.1878 728.393 17.0755C727.867 17.9644 726.716 18.2574 725.83 17.7296H725.83ZM748.413 18.4633C744.96 17.6398 744.345 17.0619 744.345 15.8475C744.345 14.7002 745.425 13.928 747.032 13.928C748.589 13.928 750.133 14.5143 751.752 15.7214C751.801 15.7579 751.862 15.7725 751.922 15.7629C751.983 15.7538 752.036 15.7206 752.072 15.6707L753.758 13.2939C753.827 13.196 753.808 13.0611 753.715 12.9863C751.788 11.4404 749.619 10.6888 747.083 10.6888C743.354 10.6888 740.75 12.9264 740.75 16.1278C740.75 19.5609 742.997 20.7766 746.879 21.7149C750.183 22.476 750.741 23.1137 750.741 24.2536C750.741 25.5167 749.613 26.302 747.798 26.302C745.783 26.302 744.139 25.623 742.299 24.0303C742.254 23.9909 742.191 23.973 742.133 23.9763C742.073 23.9813 742.017 24.0095 741.978 24.0561L740.088 26.3061C740.008 26.3994 740.018 26.5389 740.11 26.6197C742.25 28.53 744.882 29.539 747.722 29.539C751.74 29.539 754.336 27.3438 754.336 23.946C754.343 21.0777 752.626 19.4895 748.42 18.4664L748.413 18.4633ZM763.426 15.0577C761.684 15.0577 760.256 15.7436 759.078 17.149V15.5671C759.078 15.4422 758.976 15.3404 758.852 15.3404H755.76C755.635 15.3404 755.534 15.4422 755.534 15.5671V33.145C755.534 33.2699 755.635 33.3717 755.76 33.3717H758.852C758.976 33.3717 759.078 33.2699 759.078 33.145V27.5964C760.256 28.9186 761.685 29.5646 763.426 29.5646C766.661 29.5646 769.937 27.0737 769.937 22.312C769.942 17.5491 766.665 15.0574 763.429 15.0574L763.426 15.0577ZM766.342 22.312C766.342 24.7368 764.848 26.4288 762.709 26.4288C760.595 26.4288 759 24.6598 759 22.312C759 19.9643 760.595 18.1951 762.709 18.1951C764.813 18.1949 766.342 19.9259 766.342 22.3117L766.342 22.312ZM778.333 15.0577C774.166 15.0577 770.901 18.2665 770.901 22.3638C770.901 26.4164 774.143 29.5916 778.282 29.5916C782.464 29.5916 785.739 26.3935 785.739 22.3119C785.739 18.2445 782.486 15.0581 778.333 15.0581L778.333 15.0577ZM778.333 26.4529C776.116 26.4529 774.445 24.672 774.445 22.3108C774.445 19.9395 776.059 18.2187 778.282 18.2187C780.513 18.2187 782.195 19.9996 782.195 22.3626C782.195 24.7334 780.571 26.4529 778.333 26.4529H778.333ZM794.638 15.3404H791.235V11.8617C791.235 11.7371 791.134 11.6353 791.009 11.6353H787.918C787.793 11.6353 787.691 11.7371 787.691 11.8617V15.3404H786.204C786.08 15.3404 785.979 15.4422 785.979 15.5671V18.2245C785.979 18.3491 786.08 18.4511 786.204 18.4511H787.691V25.3271C787.691 28.1058 789.074 29.5147 791.802 29.5147C792.911 29.5147 793.831 29.2856 794.698 28.7939C794.769 28.7545 794.812 28.6786 794.812 28.5978V26.0672C794.812 25.9891 794.772 25.9154 794.705 25.8745C794.638 25.8322 794.554 25.8301 794.485 25.8642C793.889 26.164 793.313 26.3022 792.67 26.3022C791.678 26.3022 791.235 25.8518 791.235 24.8423V18.4523H794.638C794.762 18.4523 794.863 18.3506 794.863 18.2257V15.5685C794.868 15.4436 794.767 15.3419 794.641 15.3419L794.638 15.3404ZM806.493 15.3541V14.9268C806.493 13.6698 806.975 13.1093 808.056 13.1093C808.7 13.1093 809.218 13.2373 809.798 13.4308C809.869 13.4533 809.944 13.442 810.002 13.3993C810.062 13.3565 810.095 13.288 810.095 13.2154V10.6098C810.095 10.5102 810.031 10.4221 809.935 10.3927C809.323 10.2105 808.539 10.0235 807.365 10.0235C804.509 10.0235 803 11.6317 803 14.6727V15.327H801.514C801.39 15.327 801.287 15.4288 801.287 15.5535V18.2245C801.287 18.3491 801.39 18.4511 801.514 18.4511H803V29.0571C803 29.182 803.101 29.2837 803.225 29.2837H806.317C806.442 29.2837 806.544 29.182 806.544 29.0571V18.4518H809.431L813.853 29.0552C813.351 30.1693 812.857 30.3909 812.184 30.3909C811.639 30.3909 811.065 30.2283 810.479 29.9073C810.423 29.877 810.358 29.8719 810.298 29.8903C810.239 29.9111 810.19 29.9551 810.165 30.0124L809.117 32.3115C809.067 32.4202 809.11 32.5477 809.214 32.6041C810.308 33.1966 811.296 33.4495 812.516 33.4495C814.8 33.4495 816.062 32.386 817.174 29.5249L822.538 15.6636C822.565 15.5938 822.557 15.515 822.514 15.4532C822.472 15.3918 822.403 15.3548 822.328 15.3548H819.109C819.013 15.3548 818.927 15.4161 818.895 15.5067L815.598 24.9254L811.986 15.5004C811.953 15.4128 811.869 15.3547 811.775 15.3547H806.492L806.493 15.3541ZM799.619 15.3404H796.527C796.402 15.3404 796.301 15.4422 796.301 15.5671V29.0571C796.301 29.182 796.402 29.2837 796.527 29.2837H799.619C799.744 29.2837 799.846 29.182 799.846 29.0571V15.568C799.846 15.5382 799.84 15.5087 799.829 15.4812C799.818 15.4536 799.801 15.4286 799.78 15.4075C799.759 15.3865 799.734 15.3698 799.706 15.3584C799.678 15.3471 799.649 15.3413 799.619 15.3414L799.619 15.3404ZM798.091 9.19812C796.866 9.19812 795.872 10.1897 795.872 11.4146C795.872 12.6403 796.866 13.6331 798.091 13.6331C799.315 13.6331 800.308 12.6403 800.308 11.4146C800.308 10.1899 799.315 9.19812 798.092 9.19812H798.091ZM825.178 19.6777C823.955 19.6777 823.002 18.695 823.002 17.5016C823.002 16.3081 823.967 15.3142 825.19 15.3142C826.414 15.3142 827.366 16.2967 827.366 17.4891C827.366 18.6825 826.401 19.6777 825.178 19.6777H825.178ZM825.19 15.5305C824.076 15.5305 823.232 16.4166 823.232 17.5016C823.232 18.5861 824.07 19.4602 825.179 19.4602C826.293 19.4602 827.138 18.5748 827.138 17.4891C827.138 16.4046 826.299 15.5305 825.191 15.5305H825.19ZM825.673 17.7129L826.288 18.5746H825.769L825.215 17.7841H824.739V18.5746H824.304V16.2905H825.323C825.854 16.2905 826.203 16.562 826.203 17.0191C826.205 17.3936 825.988 17.6224 825.675 17.7129H825.673V17.7129ZM825.305 16.6824H824.738V17.4048H825.305C825.588 17.4048 825.757 17.2666 825.757 17.0433C825.757 16.8083 825.587 16.6824 825.305 16.6824H825.305V16.6824Z" fill="#CACAD2"/>
</g>
<g clip-path="url(#clip2_3_192)">
<path d="M450.266 18.0962V14.8028H446.176V9.68292L446.039 9.72532L442.197 10.9006L442.121 10.9236V14.803H436.058V12.6419C436.058 11.6356 436.283 10.8655 436.727 10.3519C437.167 9.84451 437.797 9.58655 438.601 9.58655C439.178 9.58655 439.776 9.7226 440.378 9.99088L440.529 10.0583V6.58992L440.458 6.56384C439.896 6.36203 439.133 6.26041 438.186 6.26041C436.993 6.26041 435.91 6.52 434.964 7.03447C434.018 7.54967 433.274 8.28515 432.753 9.22026C432.234 10.1543 431.97 11.233 431.97 12.4268V14.8028H429.123V18.0962H431.97V31.9705H436.058V18.0962H442.121V26.9131C442.121 30.5443 443.834 32.3844 447.212 32.3844C447.767 32.3844 448.351 32.3194 448.948 32.1921C449.555 32.0613 449.969 31.9307 450.212 31.7912L450.266 31.7593V28.4355L450.1 28.5455C449.878 28.6933 449.602 28.8141 449.278 28.904C448.952 28.9954 448.681 29.0413 448.47 29.0413C447.679 29.0413 447.093 28.8281 446.73 28.4072C446.363 27.9826 446.176 27.2401 446.176 26.2013V18.0962H450.266ZM419.993 29.0418C418.509 29.0418 417.34 28.5498 416.515 27.5806C415.686 26.6066 415.265 25.2179 415.265 23.4534C415.265 21.633 415.686 20.2083 416.516 19.217C417.34 18.2322 418.499 17.7324 419.96 17.7324C421.377 17.7324 422.506 18.2098 423.314 19.152C424.126 20.099 424.539 21.5124 424.539 23.354C424.539 25.2182 424.151 26.6502 423.387 27.6082C422.627 28.5589 421.486 29.0418 419.993 29.0418ZM420.175 14.3893C417.344 14.3893 415.096 15.2188 413.492 16.8548C411.89 18.4909 411.078 20.7552 411.078 23.5851C411.078 26.2731 411.871 28.4351 413.435 30.0103C414.999 31.5859 417.128 32.3841 419.761 32.3841C422.505 32.3841 424.709 31.543 426.311 29.8843C427.914 28.2275 428.725 25.9847 428.725 23.2208C428.725 20.4909 427.964 18.3127 426.461 16.7481C424.957 15.1827 422.842 14.3893 420.175 14.3893ZM404.487 14.3893C402.561 14.3893 400.968 14.8818 399.751 15.853C398.527 16.8299 397.906 18.1112 397.906 19.6617C397.906 20.4677 398.04 21.1836 398.304 21.7908C398.569 22.4 398.98 22.9364 399.526 23.3866C400.067 23.8331 400.903 24.3009 402.011 24.7768C402.942 25.1599 403.636 25.484 404.077 25.7394C404.508 25.9897 404.814 26.2414 404.987 26.4865C405.155 26.7263 405.24 27.0546 405.24 27.4596C405.24 28.613 404.376 29.1742 402.599 29.1742C401.94 29.1742 401.188 29.0366 400.364 28.7652C399.546 28.4979 398.775 28.1065 398.076 27.6047L397.906 27.483V31.4189L397.968 31.4479C398.547 31.7149 399.276 31.9401 400.136 32.1172C400.993 32.2946 401.773 32.3848 402.45 32.3848C404.54 32.3848 406.222 31.8899 407.45 30.9129C408.686 29.9293 409.312 28.6177 409.312 27.0136C409.312 25.8564 408.975 24.8641 408.311 24.0637C407.651 23.2699 406.505 22.5411 404.908 21.897C403.635 21.3861 402.819 20.962 402.483 20.6365C402.159 20.322 401.994 19.8773 401.994 19.3141C401.994 18.8148 402.197 18.4148 402.615 18.0909C403.035 17.7654 403.62 17.5998 404.354 17.5998C405.036 17.5998 405.732 17.7074 406.425 17.9183C407.118 18.1292 407.726 18.4116 408.234 18.757L408.401 18.8712V15.1376L408.337 15.1101C407.869 14.9092 407.251 14.7373 406.5 14.5978C405.754 14.4592 405.076 14.3893 404.487 14.3893ZM387.249 29.0418C385.765 29.0418 384.595 28.5498 383.771 27.5806C382.941 26.6066 382.522 25.2182 382.522 23.4534C382.522 21.633 382.942 20.2083 383.772 19.217C384.596 18.2322 385.755 17.7324 387.216 17.7324C388.633 17.7324 389.761 18.2098 390.57 19.152C391.382 20.099 391.795 21.5124 391.795 23.354C391.795 25.2182 391.407 26.6502 390.642 27.6082C389.883 28.5589 388.742 29.0418 387.249 29.0418ZM387.431 14.3893C384.599 14.3893 382.351 15.2188 380.749 16.8548C379.146 18.4909 378.334 20.7552 378.334 23.5851C378.334 26.2742 379.127 28.4351 380.691 30.0103C382.255 31.5859 384.384 32.3841 387.017 32.3841C389.761 32.3841 391.965 31.543 393.567 29.8843C395.169 28.2275 395.981 25.9847 395.981 23.2208C395.981 20.4909 395.22 18.3127 393.716 16.7481C392.212 15.1827 390.097 14.3893 387.431 14.3893ZM372.128 17.7759V14.8028H368.09V31.9701H372.128V23.1884C372.128 21.6952 372.467 20.4684 373.135 19.5418C373.794 18.6263 374.673 18.1623 375.746 18.1623C376.11 18.1623 376.518 18.2223 376.961 18.3409C377.398 18.4589 377.715 18.5869 377.902 18.7217L378.072 18.8447V14.7735L378.007 14.7454C377.631 14.5856 377.098 14.505 376.425 14.505C375.411 14.505 374.502 14.8311 373.725 15.4731C373.042 16.0374 372.548 16.8111 372.171 17.7759H372.128ZM360.858 14.3893C359.005 14.3893 357.353 14.7865 355.947 15.5697C354.539 16.3546 353.45 17.4752 352.708 18.9002C351.971 20.3217 351.596 21.9821 351.596 23.8339C351.596 25.4559 351.959 26.9444 352.677 28.2563C353.395 29.5704 354.412 30.5985 355.699 31.3115C356.984 32.0236 358.469 32.3846 360.114 32.3846C362.033 32.3846 363.671 32.0009 364.985 31.2443L365.038 31.2138V27.5141L364.869 27.6381C364.273 28.0716 363.608 28.4176 362.893 28.6668C362.179 28.9159 361.528 29.0418 360.958 29.0418C359.373 29.0418 358.101 28.546 357.178 27.5685C356.253 26.5897 355.783 25.2153 355.783 23.4859C355.783 21.7455 356.273 20.3358 357.237 19.2956C358.198 18.2585 359.473 17.7324 361.024 17.7324C362.352 17.7324 363.645 18.1819 364.869 19.0695L365.038 19.1925V15.2943L364.984 15.2635C364.523 15.0057 363.895 14.7929 363.115 14.6315C362.339 14.4704 361.58 14.3893 360.858 14.3893ZM348.815 14.803H344.777V31.9701H348.815V14.803ZM346.837 7.48971C346.172 7.48971 345.593 7.71597 345.116 8.16432C344.638 8.61394 344.396 9.18004 344.396 9.84814C344.396 10.5057 344.635 11.0615 345.109 11.4992C345.58 11.9356 346.161 12.1567 346.837 12.1567C347.513 12.1567 348.097 11.9356 348.573 11.4999C349.052 11.0615 349.295 10.5059 349.295 9.84814C349.295 9.20341 349.059 8.64311 348.593 8.18244C348.127 7.72267 347.536 7.48971 346.837 7.48971ZM336.761 13.5364V31.9701H340.882V8.01523H335.178L327.928 25.8082L320.893 8.01523H314.956V31.97H318.829V13.5346H318.962L326.392 31.9701H329.315L336.628 13.5364H336.761Z" fill="#CACAD2"/>
<path d="M281.997 19.0074H263V0.0102539H281.997V19.0074Z" fill="#CACAD2"/>
<path d="M302.972 19.0074H283.975V0.0102539H302.972V19.0074Z" fill="#CACAD2"/>
<path d="M281.997 39.9897H263V20.9928H281.997V39.9897Z" fill="#CACAD2"/>
<path d="M302.972 39.9897H283.975V20.9928H302.972V39.9897Z" fill="#CACAD2"/>
</g>
<defs>
<clipPath id="clip0_3_192">
<rect width="122.549" height="40" fill="white" transform="translate(511)"/>
</clipPath>
<clipPath id="clip1_3_192">
<rect width="133.366" height="40" fill="white" transform="translate(694)"/>
</clipPath>
<clipPath id="clip2_3_192">
<rect width="187.266" height="40" fill="white" transform="translate(263)"/>
</clipPath>
</defs>
</svg>
